<svg width="18" height="18" viewBox="0 0 18 18" fill="none" xmlns="http://www.w3.org/2000/svg">
<g clip-path="url(#clip0_2004_1595)">
<circle cx="9" cy="8.99998" r="9" fill="#EEEEEE"/>
<path d="M10.125 0.069614C9.76219 0.0243717 9.39267 0.000726289 9.01777 1.51317e-06L8.98223 1.51472e-06C8.60733 0.000726324 8.23781 0.0243717 7.875 0.0696141L7.875 7.875L0.0696279 7.875C0.0236726 8.24354 -4.10056e-07 8.619 -3.93402e-07 8.99998C-3.76749e-07 9.38098 0.0236741 9.75645 0.0696323 10.125L7.875 10.125L7.875 17.9304C8.24354 17.9763 8.61901 18 9 18C9.38099 18 9.75646 17.9763 10.125 17.9304L10.125 10.125L17.9304 10.125C17.9763 9.75645 18 9.38098 18 8.99998C18 8.619 17.9763 8.24354 17.9304 7.875L10.125 7.875L10.125 0.069614Z" fill="#D80027"/>
<path d="M0 8.63384C0.192101 3.83305 4.14477 0 8.99269 0C8.99512 0 8.99756 9.6925e-07 9 2.90739e-06V9H0V8.63384Z" fill="#D80027"/>
<path fill-rule="evenodd" clip-rule="evenodd" d="M3.64324 1.76705C3.75944 2.0394 4.03915 2.22169 4.35938 2.22169H6.39844C6.50391 2.22169 6.60938 2.15138 6.60938 2.04591C6.60938 1.94044 6.50391 1.87013 6.39844 1.87013H4.5C4.292 1.87013 4.08399 1.7163 3.98976 1.5224C4.09956 1.44869 4.21107 1.37733 4.32422 1.3084C4.32456 1.41344 4.39479 1.48341 4.5 1.48341H6.39844C6.71484 1.48341 6.96094 1.72951 6.96094 2.04591C6.96094 2.36232 6.71484 2.60841 6.39844 2.60841V4.54201C6.39844 4.61232 6.32812 4.68263 6.25781 4.68263H4.78125C4.71094 4.68263 4.64062 4.61232 4.64062 4.54201C4.64062 4.19044 4.92188 3.90919 5.27344 3.90919H5.58984V3.59279H3.58594V4.57716C3.58594 4.68263 3.51562 4.75294 3.41016 4.75294H1.96875C1.86328 4.75294 1.79297 4.68263 1.79297 4.57716C1.79297 4.2256 2.07422 3.94435 2.46094 3.94435H2.74219V3.62794C2.6422 3.62806 2.54324 3.60786 2.4513 3.56858C2.35935 3.5293 2.27635 3.47175 2.20731 3.39943C2.16027 3.35015 2.12039 3.29472 2.08869 3.23477C2.54665 2.68635 3.06867 2.19329 3.64324 1.76705ZM4.69088 1.09669C4.92404 0.969297 5.16347 0.851917 5.40857 0.745132H6.39844V1.09669H4.69088ZM2.24074 5.65775C2.39238 5.5061 2.59805 5.42091 2.8125 5.42091C3.0208 5.42998 3.21755 5.51916 3.36167 5.66982C3.50579 5.82049 3.58613 6.02101 3.58594 6.22951C3.58594 6.65138 3.9375 6.96779 4.35938 6.96779H6.39844C6.50391 6.96779 6.60938 6.89748 6.60938 6.79201C6.60938 6.68654 6.50391 6.61623 6.39844 6.61623H4.5C4.21875 6.61623 3.9375 6.33498 3.9375 6.05373C3.9375 5.73732 4.21875 5.49123 4.5 5.49123H6.39844V5.84279H4.5C4.39453 5.84279 4.32422 5.94826 4.32422 6.05373C4.32422 6.15919 4.39453 6.22951 4.5 6.22951H6.39844C6.71484 6.22951 6.96094 6.4756 6.96094 6.79201C6.96094 7.10841 6.71484 7.35451 6.39844 7.35451V9.2881C6.39844 9.35841 6.32812 9.42873 6.25781 9.42873H4.78125C4.71094 9.42873 4.64062 9.35841 4.64062 9.2881C4.64062 8.93654 4.92188 8.65529 5.27344 8.65529H5.58984V8.33888H3.58594V9.32326C3.58594 9.42873 3.51562 9.49904 3.41016 9.49904H1.96875C1.86328 9.49904 1.79297 9.42873 1.79297 9.32326C1.79297 8.97169 2.07422 8.69044 2.46094 8.69044H2.74219V8.37404C2.6422 8.37415 2.54324 8.35396 2.4513 8.31467C2.35935 8.27539 2.27635 8.21785 2.20731 8.14552C2.13827 8.0732 2.08465 7.98761 2.04968 7.89394C2.01472 7.80027 1.99915 7.70047 2.00391 7.6006H1.05469C0.984375 7.6006 0.914062 7.53029 0.914062 7.45998V5.98341C0.914062 5.9131 0.984375 5.84279 1.05469 5.84279C1.40625 5.84279 1.6875 6.12404 1.6875 6.4756V6.79201H2.00391V6.22951C2.00391 6.01506 2.0891 5.80939 2.24074 5.65775Z" fill="#FFDA44"/>
</g>
<defs>
<clipPath id="clip0_2004_1595">
<rect width="18" height="18" fill="white"/>
</clipPath>
</defs>
</svg>
